<svg id="visual" viewBox="0 0 540 960" width="540" height="960" xmlns="http://www.w3.org/2000/svg" xmlns:xlink="http://www.w3.org/1999/xlink" version="1.1"><rect x="0" y="0" width="540" height="960" fill="#fff"></rect><path d="M0 838L11.3 839.8C22.7 841.7 45.3 845.3 67.8 854.2C90.3 863 112.7 877 135.2 882C157.7 887 180.3 883 202.8 879C225.3 875 247.7 871 270.2 862.8C292.7 854.7 315.3 842.3 337.8 839.2C360.3 836 382.7 842 405.2 852.7C427.7 863.3 450.3 878.7 472.8 883.2C495.3 887.7 517.7 881.3 528.8 878.2L540 875L540 961L528.8 961C517.7 961 495.3 961 472.8 961C450.3 961 427.7 961 405.2 961C382.7 961 360.3 961 337.8 961C315.3 961 292.7 961 270.2 961C247.7 961 225.3 961 202.8 961C180.3 961 157.7 961 135.2 961C112.7 961 90.3 961 67.8 961C45.3 961 22.7 961 11.3 961L0 961Z" fill="#7f808a" stroke-linecap="round" stroke-linejoin="miter"></path></svg>