<svg id="visual" viewBox="0 0 900 450" width="900" height="450" xmlns="http://www.w3.org/2000/svg" xmlns:xlink="http://www.w3.org/1999/xlink" version="1.1"><rect x="0" y="0" width="900" height="450" fill="#fff"></rect><path d="M0 296L12.5 299.3C25 302.7 50 309.3 75 314.7C100 320 125 324 150 327.2C175 330.3 200 332.7 225 326.8C250 321 275 307 300 301.5C325 296 350 299 375 305.2C400 311.3 425 320.7 450 323.3C475 326 500 322 525 315.5C550 309 575 300 600 299.8C625 299.7 650 308.3 675 308.7C700 309 725 301 750 302.7C775 304.3 800 315.7 825 314.7C850 313.7 875 300.3 887.5 293.7L900 287L900 451L887.5 451C875 451 850 451 825 451C800 451 775 451 750 451C725 451 700 451 675 451C650 451 625 451 600 451C575 451 550 451 525 451C500 451 475 451 450 451C425 451 400 451 375 451C350 451 325 451 300 451C275 451 250 451 225 451C200 451 175 451 150 451C125 451 100 451 75 451C50 451 25 451 12.5 451L0 451Z" fill="#7f808a" stroke-linecap="round" stroke-linejoin="miter"></path></svg>