<svg id="visual" viewBox="0 0 900 600" width="900" height="600" xmlns="http://www.w3.org/2000/svg" xmlns:xlink="http://www.w3.org/1999/xlink" version="1.1"><rect x="0" y="0" width="900" height="600" fill="#fff"></rect><path d="M0 519L21.5 517C43 515 86 511 128.8 507.5C171.7 504 214.3 501 257.2 504.7C300 508.3 343 518.7 385.8 516C428.7 513.3 471.3 497.7 514.2 493.2C557 488.7 600 495.3 642.8 505C685.7 514.7 728.3 527.3 771.2 525.2C814 523 857 506 878.5 497.5L900 489L900 601L878.5 601C857 601 814 601 771.2 601C728.3 601 685.7 601 642.8 601C600 601 557 601 514.2 601C471.3 601 428.7 601 385.8 601C343 601 300 601 257.2 601C214.3 601 171.7 601 128.8 601C86 601 43 601 21.5 601L0 601Z" fill="#7f808a" stroke-linecap="round" stroke-linejoin="miter"></path></svg>